{"accessors":[{"bufferView":0,"byteOffset":0,"componentType":5126,"count":96,"max":[0.041290283203125,1.28681945800781,0.04815673828125],"min":[-0.04129028320313,-1.28681945800781,-0.04815673828125],"normalized":false,"type":"VEC3"},{"bufferView":1,"byteOffset":0,"componentType":5126,"count":96,"max":[0,0,0.0000763009302318096,-1],"min":[-1,-1,-1,-1],"normalized":false,"type":"VEC4"},{"bufferView":2,"byteOffset":0,"componentType":5126,"count":96,"max":[1,1,1],"min":[-1,-1,-1],"normalized":false,"type":"VEC3"},{"bufferView":3,"byteOffset":0,"componentType":5126,"count":96,"max":[1,1],"min":[0,0],"normalized":false,"type":"VEC2"},{"bufferView":4,"byteOffset":0,"componentType":5123,"count":96,"max":[95],"min":[0],"normalized":false,"type":"SCALAR"},{"bufferView":5,"byteOffset":0,"componentType":5126,"count":105,"max":[0.09295654296875,1.1736912727356,0.101959228515625],"min":[-0.09295654296875,0.504257559776306,-0.10195922851563],"normalized":false,"type":"VEC3"},{"bufferView":6,"byteOffset":0,"componentType":5126,"count":105,"max":[0.259500741958618,0.0000305185094475746,0.0000763009302318096,-1],"min":[-1,-1,-1,-1],"normalized":false,"type":"VEC4"},{"bufferView":7,"byteOffset":0,"componentType":5126,"count":105,"max":[1,1,1],"min":[-1,-1,-1],"normalized":false,"type":"VEC3"},{"bufferView":8,"byteOffset":0,"componentType":5126,"count":105,"max":[1,1],"min":[0,0],"normalized":false,"type":"VEC2"},{"bufferView":9,"byteOffset":0,"componentType":5123,"count":105,"max":[104],"min":[0],"normalized":false,"type":"SCALAR"}],"asset":{"generator":"Godot Engine v4.3.stable.mono.official@77dcf97d82cbfe4e4615475fa52ca03da645dbd8","version":"2.0"},"bufferViews":[{"buffer":0,"byteLength":1152,"byteOffset":0,"byteStride":12,"target":34962},{"buffer":0,"byteLength":1536,"byteOffset":1152,"byteStride":16,"target":34962},{"buffer":0,"byteLength":1152,"byteOffset":2688,"byteStride":12,"target":34962},{"buffer":0,"byteLength":768,"byteOffset":3840,"byteStride":8,"target":34962},{"buffer":0,"byteLength":192,"byteOffset":4608,"target":34963},{"buffer":0,"byteLength":1260,"byteOffset":4800,"byteStride":12,"target":34962},{"buffer":0,"byteLength":1680,"byteOffset":6060,"byteStride":16,"target":34962},{"buffer":0,"byteLength":1260,"byteOffset":7740,"byteStride":12,"target":34962},{"buffer":0,"byteLength":840,"byteOffset":9000,"byteStride":8,"target":34962},{"buffer":0,"byteLength":210,"byteOffset":9840,"target":34963}],"buffers":[{"byteLength":10052,"uri":"Reed0.bin"}],"extensionsUsed":["GODOT_single_root"],"images":[{"uri":"textures%2F_albedo000.png"},{"uri":"textures%2F_albedo002.png"}],"materials":[{"extensions":{},"pbrMetallicRoughness":{"baseColorFactor":[0.99999988079071,0.99999988079071,0.99999988079071,1],"baseColorTexture":{"index":0},"metallicFactor":0,"roughnessFactor":1}},{"extensions":{},"pbrMetallicRoughness":{"baseColorFactor":[0.99999988079071,0.99999988079071,0.99999988079071,1],"baseColorTexture":{"index":1},"metallicFactor":0,"roughnessFactor":1}}],"meshes":[{"extras":{"targetNames":[]},"primitives":[{"attributes":{"NORMAL":2,"POSITION":0,"TANGENT":1,"TEXCOORD_0":3},"indices":4,"material":0,"mode":4},{"attributes":{"NORMAL":7,"POSITION":5,"TANGENT":6,"TEXCOORD_0":8},"indices":9,"material":1,"mode":4}]}],"nodes":[{"children":[1],"name":"Reed"},{"mesh":0,"name":"CSGBox3D","translation":[0,-1.28091251850128,0]}],"samplers":[{"magFilter":9729,"minFilter":9987,"wrapS":10497,"wrapT":10497}],"scene":0,"scenes":[{"nodes":[0]}],"textures":[{"sampler":0,"source":0},{"sampler":0,"source":1}]}