# Blender 4.3.0
# www.blender.org
mtllib Reed.mtl
o CSGBox3D
v 0.041290 2.451818 0.043923
v 0.041290 2.564947 0.048157
v 0.041290 2.451818 -0.048157
v 0.041290 2.564947 0.048157
v 0.041290 2.564947 -0.048157
v 0.041290 2.451818 -0.048157
v 0.041290 1.782385 -0.048157
v 0.041290 -0.008692 -0.048157
v 0.041290 1.782385 -0.045289
v 0.041290 1.782385 -0.045289
v 0.041290 -0.008692 -0.048157
v 0.041290 1.782385 0.018871
v 0.041290 2.451818 0.048157
v 0.041290 2.564947 0.048157
v 0.041290 2.451818 0.045289
v 0.041290 2.451818 0.045289
v 0.041290 2.564947 0.048157
v 0.041290 2.451818 0.043923
v 0.041290 1.782385 0.019865
v 0.041290 -0.008692 -0.048157
v 0.041290 -0.008692 0.048157
v 0.041290 1.782385 0.019865
v 0.041290 -0.008692 0.048157
v 0.041290 1.782385 0.048157
v 0.041290 2.564947 0.048157
v -0.041290 2.564947 0.048157
v -0.041290 2.564947 -0.048157
v -0.041290 2.564947 -0.048157
v 0.041290 2.564947 -0.048157
v 0.041290 2.564947 0.048157
v 0.041290 1.782385 0.048157
v 0.041290 -0.008692 0.048157
v -0.041290 -0.008692 0.048157
v 0.037660 2.451818 0.048157
v 0.041290 2.564947 0.048157
v 0.041290 2.451818 0.048157
v 0.016180 1.782385 0.048157
v 0.041290 1.782385 0.048157
v -0.041290 -0.008692 0.048157
v -0.041290 2.451818 0.048157
v -0.041290 2.564947 0.048157
v 0.041290 2.564947 0.048157
v 0.016180 1.782385 0.048157
v -0.041290 -0.008692 0.048157
v -0.041290 1.782385 0.048157
v -0.041290 2.451818 0.048157
v 0.041290 2.564947 0.048157
v 0.037660 2.451818 0.048157
v -0.041290 2.451818 -0.043923
v -0.041290 2.564947 -0.048157
v -0.041290 2.451818 0.048157
v -0.041290 2.564947 -0.048157
v -0.041290 2.564947 0.048157
v -0.041290 2.451818 0.048157
v -0.041290 1.782385 0.048157
v -0.041290 -0.008692 0.048157
v -0.041290 1.782385 0.045289
v -0.041290 1.782385 0.045289
v -0.041290 -0.008692 0.048157
v -0.041290 1.782385 -0.018871
v -0.041290 2.451818 -0.048157
v -0.041290 2.564947 -0.048157
v -0.041290 2.451818 -0.045289
v -0.041290 2.451818 -0.045289
v -0.041290 2.564947 -0.048157
v -0.041290 2.451818 -0.043923
v -0.041290 1.782385 -0.019865
v -0.041290 -0.008692 0.048157
v -0.041290 -0.008692 -0.048157
v -0.041290 1.782385 -0.019865
v -0.041290 -0.008692 -0.048157
v -0.041290 1.782385 -0.048157
v -0.041290 -0.008692 0.048157
v 0.041290 -0.008692 0.048157
v 0.041290 -0.008692 -0.048157
v 0.041290 -0.008692 -0.048157
v -0.041290 -0.008692 -0.048157
v -0.041290 -0.008692 0.048157
v 0.041290 2.451818 -0.048157
v 0.041290 2.564947 -0.048157
v -0.041290 2.564947 -0.048157
v -0.016180 1.782385 -0.048157
v 0.041290 -0.008692 -0.048157
v 0.041290 1.782385 -0.048157
v 0.041290 2.451818 -0.048157
v -0.041290 2.564947 -0.048157
v -0.037660 2.451818 -0.048157
v -0.041290 1.782385 -0.048157
v -0.041290 -0.008692 -0.048157
v 0.041290 -0.008692 -0.048157
v -0.037660 2.451818 -0.048157
v -0.041290 2.564947 -0.048157
v -0.041290 2.451818 -0.048157
v -0.016180 1.782385 -0.048157
v -0.041290 1.782385 -0.048157
v 0.041290 -0.008692 -0.048157
v 0.092957 2.451818 0.101959
v 0.092957 2.451818 -0.101959
v 0.092957 1.782385 -0.101959
v 0.092957 1.782385 -0.101959
v 0.092957 1.782385 0.101959
v 0.092957 2.451818 0.101959
v 0.092957 2.451818 0.101959
v -0.092957 2.451818 0.101959
v 0.041290 2.451818 0.048157
v 0.041290 2.451818 0.043923
v 0.092957 2.451818 0.101959
v 0.041290 2.451818 0.048157
v -0.041290 2.451818 -0.043923
v -0.092957 2.451818 -0.101959
v -0.041290 2.451818 -0.045815
v 0.041290 2.451818 0.048157
v -0.092957 2.451818 0.101959
v 0.037660 2.451818 0.048157
v -0.092957 2.451818 0.101959
v -0.092957 2.451818 -0.101959
v -0.041290 2.451818 0.048157
v -0.041290 2.451818 0.048157
v -0.092957 2.451818 -0.101959
v -0.041290 2.451818 -0.043923
v 0.037660 2.451818 0.048157
v -0.092957 2.451818 0.101959
v -0.041290 2.451818 0.048157
v -0.092957 2.451818 -0.101959
v 0.092957 2.451818 -0.101959
v 0.041290 2.451818 -0.048157
v 0.092957 2.451818 -0.101959
v 0.092957 2.451818 0.101959
v 0.041290 2.451818 -0.048157
v 0.041290 2.451818 -0.048157
v 0.092957 2.451818 0.101959
v 0.041290 2.451818 0.043923
v -0.041290 2.451818 -0.045815
v -0.092957 2.451818 -0.101959
v -0.041290 2.451818 -0.048157
v -0.037660 2.451818 -0.048157
v -0.041290 2.451818 -0.048157
v -0.092957 2.451818 -0.101959
v -0.092957 2.451818 -0.101959
v 0.041290 2.451818 -0.048157
v -0.037660 2.451818 -0.048157
v 0.092957 2.451818 0.101959
v 0.092957 1.782385 0.101959
v -0.092957 1.782385 0.101959
v -0.092957 1.782385 0.101959
v -0.092957 2.451818 0.101959
v 0.092957 2.451818 0.101959
v -0.092957 2.451818 -0.101959
v -0.092957 2.451818 0.101959
v -0.092957 1.782385 0.101959
v -0.092957 1.782385 0.101959
v -0.092957 1.782385 -0.101959
v -0.092957 2.451818 -0.101959
v 0.092957 1.782385 0.101959
v 0.092957 1.782385 -0.101959
v 0.041290 1.782385 0.018871
v 0.041290 1.782385 0.018871
v 0.092957 1.782385 -0.101959
v 0.041290 1.782385 -0.045289
v -0.092957 1.782385 0.101959
v 0.092957 1.782385 0.101959
v 0.041290 1.782385 0.048157
v 0.092957 1.782385 0.101959
v 0.041290 1.782385 0.018871
v 0.041290 1.782385 0.048157
v -0.092957 1.782385 0.101959
v 0.041290 1.782385 0.048157
v 0.016180 1.782385 0.048157
v -0.041290 1.782385 0.045289
v -0.092957 1.782385 0.101959
v -0.041290 1.782385 0.048157
v -0.041290 1.782385 0.048157
v -0.092957 1.782385 0.101959
v 0.016180 1.782385 0.048157
v 0.092957 1.782385 -0.101959
v -0.092957 1.782385 -0.101959
v 0.041290 1.782385 -0.048157
v 0.041290 1.782385 -0.045289
v 0.092957 1.782385 -0.101959
v 0.041290 1.782385 -0.048157
v -0.092957 1.782385 -0.101959
v -0.092957 1.782385 0.101959
v -0.041290 1.782385 -0.018871
v -0.041290 1.782385 0.045289
v -0.041290 1.782385 -0.018871
v -0.092957 1.782385 0.101959
v -0.016180 1.782385 -0.048157
v 0.041290 1.782385 -0.048157
v -0.092957 1.782385 -0.101959
v -0.092957 1.782385 -0.101959
v -0.041290 1.782385 -0.048157
v -0.016180 1.782385 -0.048157
v -0.092957 1.782385 -0.101959
v -0.041290 1.782385 -0.018871
v -0.041290 1.782385 -0.048157
v 0.092957 1.782385 -0.101959
v 0.092957 2.451818 -0.101959
v -0.092957 2.451818 -0.101959
v -0.092957 2.451818 -0.101959
v -0.092957 1.782385 -0.101959
v 0.092957 1.782385 -0.101959
vn 1.0000 -0.0000 -0.0000
vn -0.0000 1.0000 -0.0000
vn -0.0000 -0.0000 1.0000
vn -1.0000 -0.0000 -0.0000
vn -0.0000 -1.0000 -0.0000
vn -0.0000 -0.0000 -1.0000
vn 0.0001 1.0000 -0.0000
vn -0.0001 1.0000 -0.0001
vn -0.0002 1.0000 0.0001
vt 0.043957 0.956043
vt 0.043957 0.000000
vt 0.000000 1.000000
vt 0.000000 0.000000
vt 0.304068 0.000000
vt 0.304068 0.029773
vt 1.000000 0.000000
vt 0.304068 0.695932
vt 0.043957 1.000000
vt 0.043956 0.970227
vt 0.043957 0.956043
vt 0.304068 0.706256
vt 1.000000 1.000000
vt 0.304068 1.000000
vt 0.000000 0.695932
vt 0.043957 0.956043
vt 0.000000 0.956043
vt 0.304068 0.695932
vt 1.000000 0.956043
vt 1.000000 0.695932
vt 0.043957 0.956043
vt 0.000000 0.043957
vt 0.695932 0.304068
vt 0.000000 0.304068
vt 0.956043 0.043957
vt 1.000000 0.304068
vt 0.956043 0.043957
vt 1.000000 0.043957
vt 0.695932 0.304068
vt 0.263843 0.722095
vt 0.281556 0.718444
vt 0.715968 0.278606
vt 0.723499 0.276501
vt 0.263843 0.702569
vt 0.263843 0.277905
vt 0.736157 0.722095
vt 0.281583 0.718417
vt 0.723510 0.276490
vt 0.735071 0.276584
vt 0.735119 0.296167
vt 0.407459 0.277905
vt 0.722095 0.277905
vt 0.263843 0.277905
vt 0.263843 0.412969
vt 0.277905 0.722095
vt 0.263843 0.722095
vt 0.736157 0.277905
vt 0.722095 0.277905
vt 0.592541 0.722095
vt 0.277905 0.722095
vt 0.736157 0.587031
vt 0.736157 0.722095
s 0
usemtl Material_0
f 1/1/1 3/2/1 2/3/1
f 4/3/1 6/2/1 5/4/1
f 7/5/1 9/6/1 8/7/1
f 10/6/1 12/8/1 11/7/1
f 13/9/1 15/10/1 14/3/1
f 16/10/1 18/11/1 17/3/1
f 19/12/1 21/13/1 20/7/1
f 22/12/1 24/14/1 23/13/1
f 25/3/2 27/7/2 26/4/2
f 28/7/2 30/3/2 29/13/2
f 31/15/3 33/7/3 32/4/3
f 34/16/3 36/17/3 35/3/3
f 37/18/3 39/7/3 38/15/3
f 40/19/3 42/3/3 41/13/3
f 43/8/3 45/20/3 44/7/3
f 46/19/3 48/21/3 47/3/3
f 49/1/4 51/2/4 50/3/4
f 52/3/4 54/2/4 53/4/4
f 55/5/4 57/6/4 56/7/4
f 58/6/4 60/8/4 59/7/4
f 61/9/4 63/10/4 62/3/4
f 64/10/4 66/11/4 65/3/4
f 67/12/4 69/13/4 68/7/4
f 70/12/4 72/14/4 71/13/4
f 73/3/5 75/7/5 74/4/5
f 76/7/5 78/3/5 77/13/5
f 79/22/6 81/7/6 80/4/6
f 82/23/6 84/24/6 83/3/6
f 85/22/6 87/25/6 86/7/6
f 88/26/6 90/3/6 89/13/6
f 91/27/6 93/28/6 92/7/6
f 94/29/6 96/3/6 95/26/6
usemtl Material_1
f 97/3/1 99/7/1 98/4/1
f 100/7/1 102/3/1 101/13/1
f 103/3/2 105/30/2 104/4/2
f 106/31/7 108/30/7 107/3/7
f 109/32/2 111/33/2 110/7/2
f 112/30/8 114/34/8 113/4/8
f 115/4/2 117/35/2 116/7/2
f 118/35/2 120/32/2 119/7/2
f 121/34/2 123/35/2 122/4/2
f 124/7/2 126/36/2 125/13/2
f 127/13/2 129/36/2 128/3/2
f 130/36/2 132/37/2 131/3/2
f 133/38/9 135/39/9 134/7/9
f 136/40/2 138/7/2 137/39/2
f 139/7/2 141/40/2 140/36/2
f 142/3/3 144/7/3 143/4/3
f 145/7/3 147/3/3 146/13/3
f 148/3/4 150/7/4 149/4/4
f 151/7/4 153/3/4 152/13/4
f 154/4/5 156/41/5 155/7/5
f 157/41/5 159/42/5 158/7/5
f 160/3/5 162/43/5 161/4/5
f 163/4/5 165/43/5 164/41/5
f 166/3/5 168/44/5 167/43/5
f 169/45/5 171/46/5 170/3/5
f 172/46/5 174/44/5 173/3/5
f 175/7/5 177/47/5 176/13/5
f 178/48/5 180/47/5 179/7/5
f 181/13/5 183/49/5 182/3/5
f 184/50/5 186/3/5 185/49/5
f 187/51/5 189/13/5 188/47/5
f 190/13/5 192/51/5 191/52/5
f 193/13/5 195/52/5 194/49/5
f 196/3/6 198/7/6 197/4/6
f 199/7/6 201/3/6 200/13/6
